<svg width="40" height="41" viewBox="0 0 40 41" fill="none" xmlns="http://www.w3.org/2000/svg">
<path d="M39.6035 20.5L19.8018 40.5L17.1709 37.8428L34.3428 20.5L17.1709 3.15723L19.8018 0.5L39.6035 20.5ZM32.7354 20.5L16.3682 37.0312L13.7373 34.374L27.4736 20.5L13.7373 6.62598L16.3682 3.96875L32.7354 20.5ZM25.8672 20.5L12.9336 33.5625L10.3027 30.9062L20.6055 20.5L12.9336 12.751L2.63086 23.1572L0 20.5L12.9336 7.4375L25.8672 20.5ZM18.998 20.5L9.49902 30.0938L6.86816 27.4375L13.7373 20.5L10.3027 17.0312L12.9336 14.374L18.998 20.5ZM12.1025 20.5273L6.06543 26.626L3.43457 23.9688L9.47168 17.8711L12.1025 20.5273Z" fill="#D41C1C"/>
</svg>
