<svg width="100" height="46" viewBox="0 0 100 46" fill="none" xmlns="http://www.w3.org/2000/svg">
<path d="M11.611 0C15.2449 2.61365e-05 17.9483 0.901002 19.7209 2.70318C21.4936 4.50539 22.3797 6.83957 22.3797 9.70538C22.3797 12.7779 21.3457 15.6585 19.2776 18.347C17.239 21.0355 14.6836 23.4434 11.611 25.5706H22.6899L27.5556 25.5702H29.0623C30.185 25.5998 31.1305 25.4226 31.8986 25.0386C32.6963 24.6249 33.0951 23.8122 33.0951 22.6008C33.095 21.685 32.8734 21.0056 32.4302 20.5624C31.9871 20.0898 31.3815 19.8533 30.6134 19.8533C29.7566 19.8533 29.1213 20.1635 28.7077 20.7839C28.3236 21.3748 28.102 22.1134 28.0429 22.9998H19.5784C19.6966 19.6614 20.7307 17.1058 22.6805 15.3332C24.6304 13.531 27.3486 12.6296 30.8348 12.6296C33.1098 12.6296 35.0451 13.0288 36.6405 13.8265C38.2654 14.5946 39.4917 15.658 40.3189 17.017C41.146 18.3464 41.5594 19.8535 41.5594 21.5374C41.5594 23.5463 41.072 25.1565 40.0972 26.3677C39.1223 27.5495 38.0141 28.3475 36.7732 28.7611V28.9382C40.3483 30.2677 42.1356 32.8087 42.1356 36.5608C42.1356 38.422 41.707 40.0618 40.8505 41.48C39.9935 42.8978 38.7527 44.0056 37.1279 44.8034C35.5029 45.6011 33.5678 46 31.3225 46C27.6295 46 24.7045 45.1138 22.5478 43.3413C20.4207 41.5391 19.3124 38.791 19.2238 35.0981H27.6883C27.6292 36.2798 27.8806 37.1957 28.4419 37.8457C29.0032 38.4956 29.8453 38.8207 30.9679 38.8207C31.8246 38.8206 32.4893 38.5548 32.9619 38.0232C33.4642 37.4914 33.7155 36.7823 33.7155 35.896C33.7155 34.7734 33.3462 33.9461 32.6078 33.4143C31.8987 32.8825 30.7315 32.6164 29.1067 32.6164H28.5946L22.5553 32.6168H0.0887446V26.1023C2.95446 23.857 5.30321 21.9219 7.13489 20.297C8.96662 18.6721 10.5029 17.0028 11.7438 15.2892C12.9845 13.5462 13.605 11.8916 13.605 10.3258C13.605 9.38036 13.3834 8.6417 12.9402 8.10993C12.5266 7.57815 11.9062 7.312 11.0789 7.312C10.2222 7.31204 9.55762 7.68157 9.08495 8.42015C8.61221 9.12921 8.39061 10.178 8.42012 11.5667H0C0.0886316 8.93729 0.664634 6.76571 1.72816 5.05216C2.79176 3.30905 4.18047 2.03855 5.89405 1.24085C7.60764 0.413618 9.51335 1.2063e-06 11.611 0ZM47.1325 43.6385H46.771V17.1528H47.1325V43.6385ZM67.5503 34.0359C68.2918 34.0359 68.9613 34.2046 69.5584 34.5417C70.1652 34.8691 70.6368 35.341 70.9742 35.9573C71.3208 36.564 71.4941 37.2767 71.4941 38.0954C71.4941 38.9044 71.3208 39.6172 70.9742 40.2335C70.6272 40.8499 70.1507 41.3268 69.5439 41.6638C68.9371 41.9911 68.2628 42.1551 67.5213 42.1551C66.7795 42.1551 66.1104 41.9911 65.5133 41.6638C64.9258 41.3268 64.4585 40.8547 64.1119 40.248C63.7746 39.6317 63.6061 38.914 63.6061 38.0954C63.6061 37.2767 63.7798 36.564 64.1264 35.9573C64.473 35.341 64.9451 34.8691 65.5422 34.5417C66.1393 34.2046 66.8084 34.0359 67.5503 34.0359ZM57.4017 31.8256C58.5284 31.8256 59.4914 32.0951 60.2908 32.6345C61.0998 33.1642 61.6873 33.9157 62.0536 34.8884H60.8686C60.5799 34.2047 60.1368 33.67 59.5397 33.2847C58.9522 32.8995 58.2393 32.7067 57.4017 32.7067C56.6598 32.7067 55.9907 32.8803 55.3936 33.227C54.8062 33.5737 54.3433 34.0745 54.0068 34.7294C53.6694 35.3746 53.5009 36.1259 53.5009 36.983C53.5009 37.8401 53.6694 38.5916 54.0068 39.2369C54.3433 39.8821 54.8062 40.3783 55.3936 40.7249C55.9907 41.0715 56.6598 41.2448 57.4017 41.2448C58.2393 41.2448 58.9522 41.057 59.5397 40.6814C60.1368 40.2962 60.5799 39.7665 60.8686 39.0924H62.0536C61.6873 40.0554 61.0998 40.8017 60.2908 41.3316C59.4818 41.8612 58.5187 42.1262 57.4017 42.1262C56.4769 42.1262 55.6389 41.9094 54.8878 41.476C54.1367 41.0329 53.5444 40.4213 53.1109 39.6414C52.6774 38.8612 52.4607 37.975 52.4607 36.983C52.4607 35.991 52.6774 35.105 53.1109 34.3249C53.5444 33.5352 54.1367 32.9234 54.8878 32.4899C55.6389 32.047 56.4769 31.8256 57.4017 31.8256ZM73.511 40.6235C73.7133 40.6235 73.8818 40.6959 74.0165 40.8403C74.1608 40.9754 74.2332 41.1487 74.2332 41.3606C74.2332 41.5725 74.1608 41.7506 74.0165 41.895C73.8818 42.0393 73.7133 42.1117 73.511 42.1117C73.2991 42.1117 73.121 42.0393 72.9762 41.895C72.8415 41.7506 72.774 41.5725 72.774 41.3606C72.774 41.1487 72.8415 40.9754 72.9762 40.8403C73.121 40.6959 73.2991 40.6235 73.511 40.6235ZM67.5358 34.9171C67.0155 34.9171 66.5342 35.0376 66.0911 35.2783C65.648 35.5094 65.2917 35.8657 65.0219 36.3472C64.7617 36.8191 64.6319 37.402 64.6319 38.0954C64.6319 38.7888 64.7617 39.3765 65.0219 39.8581C65.2917 40.33 65.6431 40.6863 66.0766 40.9271C66.5197 41.1583 67.001 41.2737 67.5213 41.2737C68.0413 41.2737 68.523 41.1583 68.9661 40.9271C69.4088 40.6863 69.7655 40.33 70.0349 39.8581C70.3143 39.3765 70.4539 38.7888 70.4539 38.0954C70.4539 37.402 70.3192 36.8191 70.0493 36.3472C69.7799 35.8657 69.4233 35.5094 68.9802 35.2783C68.5375 35.0376 68.0557 34.9171 67.5358 34.9171ZM86.0843 20.7667C86.8257 20.7667 87.4711 20.9398 88.02 21.2865C88.5688 21.6332 88.9637 22.0716 89.2046 22.6012V20.8821H90.2158V28.9724C90.2158 29.6947 90.057 30.3351 89.7389 30.8937C89.4309 31.4522 88.9975 31.8808 88.439 32.1794C87.8804 32.4875 87.2447 32.6419 86.5318 32.6419C85.5205 32.6419 84.6781 32.401 84.0038 31.9194C83.3391 31.4378 82.925 30.783 82.7613 29.9548H83.7581C83.9314 30.5038 84.2591 30.9421 84.7404 31.2695C85.2318 31.597 85.8289 31.7608 86.5318 31.7608C87.0425 31.7607 87.5001 31.6497 87.9046 31.4282C88.3091 31.2163 88.6267 30.8985 88.8579 30.4747C89.0892 30.051 89.2046 29.5502 89.2046 28.9724V27.022C88.954 27.5613 88.5544 28.0093 88.0055 28.3657C87.4663 28.7124 86.8257 28.8856 86.0843 28.8856C85.3617 28.8856 84.7115 28.7172 84.1337 28.3802C83.5655 28.0431 83.1176 27.5661 82.7903 26.9497C82.4726 26.3334 82.3134 25.6205 82.3134 24.8116C82.3134 24.0027 82.4726 23.2947 82.7903 22.688C83.1176 22.0716 83.5655 21.5999 84.1337 21.2724C84.7115 20.9353 85.3617 20.7667 86.0843 20.7667ZM66.5326 20.7667C67.2837 20.7667 67.9387 20.9304 68.4972 21.2579C69.0658 21.5853 69.4989 22.0285 69.7976 22.5871C70.1056 23.136 70.26 23.7475 70.26 24.4217C70.26 24.7683 70.2504 25.033 70.2311 25.216H63.6865C63.7155 25.8132 63.8598 26.3237 64.12 26.7475C64.3801 27.1712 64.7219 27.4939 65.1457 27.7154C65.5696 27.9273 66.032 28.0335 66.5326 28.0335C67.1876 28.0335 67.7365 27.8742 68.1796 27.5564C68.6323 27.2386 68.9307 26.8101 69.0755 26.2708H70.1442C69.9516 27.0412 69.5375 27.6723 68.9017 28.1635C68.2761 28.645 67.486 28.8856 66.5326 28.8856C65.7911 28.8856 65.1264 28.7218 64.539 28.3944C63.9515 28.0573 63.4891 27.5855 63.1521 26.9788C62.8248 26.3623 62.6608 25.6447 62.6608 24.8261C62.6608 24.0075 62.8248 23.2898 63.1521 22.6734C63.4794 22.0571 63.937 21.5853 64.5245 21.2579C65.112 20.9304 65.7815 20.7667 66.5326 20.7667ZM74.6096 20.7667C75.4568 20.7667 76.1407 20.9835 76.6607 21.4169C77.181 21.8407 77.46 22.4281 77.4986 23.1792H76.4874C76.4584 22.717 76.2755 22.3461 75.9385 22.0668C75.6112 21.7779 75.1584 21.6333 74.5806 21.6333C74.0699 21.6333 73.6558 21.7537 73.3381 21.9945C73.0201 22.2353 72.8612 22.5339 72.8612 22.8902C72.8612 23.1984 72.9529 23.4537 73.1359 23.6559C73.3285 23.8485 73.5645 24.0025 73.8436 24.1181C74.123 24.2241 74.4986 24.3446 74.9706 24.4794C75.5388 24.6334 75.9916 24.7829 76.3285 24.9274C76.6655 25.0718 76.955 25.2835 77.1955 25.5628C77.4363 25.842 77.5614 26.213 77.571 26.6752C77.571 27.099 77.4552 27.4797 77.2244 27.8167C76.9932 28.1441 76.6699 28.404 76.2562 28.5966C75.842 28.7892 75.3655 28.8856 74.8259 28.8856C73.9208 28.8856 73.1793 28.6785 72.6015 28.2644C72.0329 27.8406 71.7152 27.2675 71.6477 26.5452H72.6879C72.7362 26.9883 72.9433 27.3493 73.3092 27.6286C73.6847 27.8983 74.1857 28.0335 74.8118 28.0335C75.3607 28.0335 75.7893 27.9032 76.0973 27.6432C76.4154 27.3831 76.5742 27.0604 76.5742 26.6752C76.5738 26.4056 76.4874 26.1841 76.3141 26.0108C76.1407 25.8374 75.9192 25.7027 75.6494 25.6064C75.3896 25.5004 75.0326 25.3897 74.5806 25.2741C73.9931 25.1201 73.5163 24.9657 73.1503 24.8116C72.7844 24.6575 72.4712 24.4312 72.211 24.1326C71.9609 23.8245 71.8355 23.4152 71.8355 22.9047C71.8355 22.5195 71.9513 22.163 72.1825 21.8355C72.4133 21.5081 72.741 21.2483 73.1648 21.0556C73.5886 20.863 74.0699 20.7667 74.6096 20.7667ZM55.9135 18.6717C57.0306 18.6717 57.9892 18.8743 58.7885 19.2788C59.5879 19.6832 60.1995 20.2658 60.6233 21.0266C61.0471 21.7874 61.2586 22.6929 61.2586 23.7427C61.2586 24.7829 61.0471 25.6835 60.6233 26.4443C60.1995 27.1955 59.5879 27.7731 58.7885 28.1776C57.9892 28.5724 57.0306 28.7701 55.9135 28.7701H52.9231V18.6717H55.9135ZM80.4858 28.7701H79.4746V20.8821H80.4858V28.7701ZM96.2228 20.7376C97.1665 20.7376 97.9374 21.0316 98.5345 21.6191C99.1316 22.197 99.4299 23.0396 99.4299 24.1472V28.7701H98.4331V24.2626C98.4331 23.4055 98.2164 22.7507 97.783 22.298C97.3591 21.8454 96.7765 21.6191 96.035 21.6191C95.2743 21.6191 94.6675 21.8597 94.2147 22.3413C93.762 22.8228 93.536 23.5307 93.536 24.4648V28.7701H92.5247V20.8821H93.536V22.2258C93.7861 21.7443 94.1472 21.3783 94.6192 21.1279C95.0913 20.8679 95.6257 20.7376 96.2228 20.7376ZM86.272 21.6478C85.7131 21.6478 85.2125 21.7732 84.7694 22.0236C84.3263 22.274 83.9749 22.64 83.7147 23.1215C83.4646 23.5934 83.3391 24.1567 83.3391 24.8116C83.3391 25.4569 83.4646 26.0254 83.7147 26.5166C83.9749 26.998 84.3267 27.3686 84.7694 27.6286C85.2125 27.879 85.7131 28.0044 86.272 28.0044C86.8113 28.0044 87.3026 27.8745 87.7453 27.6145C88.1981 27.3545 88.5544 26.9836 88.8145 26.502C89.0747 26.0205 89.2046 25.4618 89.2046 24.8261C89.2046 24.1904 89.0747 23.6317 88.8145 23.1502C88.5544 22.6687 88.1981 22.2981 87.7453 22.0381C87.3026 21.7781 86.8113 21.6478 86.272 21.6478ZM53.9344 27.9322H55.9135C57.3197 27.9322 58.3889 27.5662 59.1207 26.8343C59.8622 26.0927 60.2333 25.0621 60.2333 23.7427C60.2333 22.4137 59.8622 21.3782 59.1207 20.6367C58.3889 19.8854 57.3197 19.5097 55.9135 19.5097H53.9344V27.9322ZM66.4892 21.6333C65.7384 21.6333 65.0975 21.8742 64.5679 22.3558C64.0384 22.8373 63.7444 23.5162 63.6865 24.3926H69.2343C69.2439 23.8052 69.1233 23.3043 68.8732 22.8902C68.6323 22.4761 68.2998 22.1632 67.8764 21.9513C67.4526 21.7395 66.9902 21.6333 66.4892 21.6333ZM79.98 17.9064C80.1823 17.9064 80.356 17.9783 80.5003 18.1228C80.6447 18.2576 80.717 18.4312 80.717 18.643C80.717 18.8549 80.6447 19.033 80.5003 19.1775C80.356 19.3219 80.1823 19.3942 79.98 19.3942C79.7777 19.3942 79.6044 19.3219 79.4601 19.1775C79.3157 19.033 79.2434 18.8549 79.2434 18.643C79.2434 18.4312 79.3157 18.2576 79.4601 18.1228C79.6044 17.9784 79.7777 17.9064 79.98 17.9064Z" fill="black"/>
</svg>
