<svg width="40" height="40" viewBox="0 0 40 40" fill="none" xmlns="http://www.w3.org/2000/svg">
<path d="M26.7962 33.5923L26.1649 34.2236L26.7962 33.5923ZM33.5925 26.796L32.9611 27.4274L33.5925 26.796ZM13.2038 6.40736L13.8351 5.77601L13.2038 6.40736ZM6.40754 13.2036L7.03889 12.5722L6.40754 13.2036ZM9.36865 16.0351C9.01997 16.3838 9.01997 16.9491 9.36865 17.2978C9.71734 17.6464 10.2827 17.6464 10.6313 17.2978L9.36865 16.0351ZM17.298 10.6311C17.6467 10.2824 17.6467 9.71709 17.298 9.36841C16.9493 9.01972 16.384 9.01972 16.0353 9.36841L17.298 10.6311ZM25.6631 6.12607L25.9917 6.95625L25.6631 6.12607ZM26.117 5.67049L25.286 5.34395V5.34395L26.117 5.67049ZM23.8444 8.3506L24.173 7.52042L23.8444 8.3506ZM23.8444 6.84603L23.5157 6.01585L23.8444 6.84603ZM26.117 9.52614L25.286 9.85268L26.117 9.52614ZM25.6631 9.07056L25.3345 9.90074L25.6631 9.07056ZM28.3333 11.3516L29.1644 11.6782V11.6782L28.3333 11.3516ZM26.8343 11.3516L27.6653 11.0251L26.8343 11.3516ZM29.5046 9.07056L29.8332 9.90074L29.5046 9.07056ZM29.0506 9.52614L28.2196 9.19961V9.19961L29.0506 9.52614ZM31.3233 6.84603L30.9947 7.67621H30.9947L31.3233 6.84603ZM31.3233 8.3506L30.9947 7.52042L31.3233 8.3506ZM29.0506 5.67049L29.8817 5.34395V5.34395L29.0506 5.67049ZM29.5046 6.12607L29.8332 5.29589V5.29589L29.5046 6.12607ZM28.3333 3.84501L27.5023 4.17155V4.17155L28.3333 3.84501ZM26.8343 3.84501L27.6653 4.17155V4.17155L26.8343 3.84501ZM32.5641 16.3367L32.2355 15.5065H32.2355L32.5641 16.3367ZM33.018 15.8811L32.187 15.5546L33.018 15.8811ZM31.901 18.1037L31.5724 18.9339L31.901 18.1037ZM31.901 16.5992L32.2296 17.4294L32.2296 17.4294L31.901 16.5992ZM33.018 18.8218L33.849 18.4953L33.018 18.8218ZM32.5641 18.3662L32.8928 17.5361L32.5641 18.3662ZM34.7786 19.4874L35.6096 19.8139V19.8139L34.7786 19.4874ZM33.2796 19.4874L32.4486 19.8139V19.8139L33.2796 19.4874ZM35.494 18.3662L35.1654 17.5361H35.1654L35.494 18.3662ZM35.0401 18.8218L34.2091 18.4953H34.2091L35.0401 18.8218ZM36.1572 16.5992L35.8285 17.4294L35.8285 17.4294L36.1572 16.5992ZM36.1572 18.1037L36.4858 18.9339H36.4858L36.1572 18.1037ZM35.0401 15.8811L35.8711 15.5546L35.0401 15.8811ZM35.494 16.3367L35.8227 15.5065H35.8227L35.494 16.3367ZM34.7786 15.2155L33.9476 15.542L34.7786 15.2155ZM33.2796 15.2155L34.1106 15.542L33.2796 15.2155ZM7.84035 26.6329L7.51172 25.8027L7.84035 26.6329ZM8.29426 26.1773L7.46326 25.8508H7.46326L8.29426 26.1773ZM7.17723 28.4L7.50586 27.5698H7.50586L7.17723 28.4ZM7.17723 26.8954L7.50586 27.7256H7.50586L7.17723 26.8954ZM8.29426 29.1181L7.46326 29.4446H7.46326L8.29426 29.1181ZM7.84035 28.6625L7.51172 29.4926L7.84035 28.6625ZM10.0548 29.7836L9.22381 29.4571H9.22381L10.0548 29.7836ZM8.55579 29.7836L9.3868 29.4571H9.3868L8.55579 29.7836ZM10.7703 28.6625L11.0989 29.4926H11.0989L10.7703 28.6625ZM10.3164 29.1181L11.1474 29.4446L10.3164 29.1181ZM11.4334 26.8954L11.1048 27.7256L11.4334 26.8954ZM11.4334 28.4L11.1048 27.5698L11.4334 28.4ZM10.3164 26.1773L11.1474 25.8508L10.3164 26.1773ZM10.7703 26.6329L11.0989 25.8027H11.0989L10.7703 26.6329ZM10.0548 25.5117L9.22381 25.8383H9.22381L10.0548 25.5117ZM8.55579 25.5117L9.3868 25.8383H9.3868L8.55579 25.5117ZM13.2038 6.40736L12.5724 7.0387L32.9611 27.4274L33.5925 26.796L34.2238 26.1647L13.8351 5.77601L13.2038 6.40736ZM26.7962 33.5923L27.4276 32.9609L7.03889 12.5722L6.40754 13.2036L5.7762 13.8349L26.1649 34.2236L26.7962 33.5923ZM33.5925 33.5923L32.9611 32.9609C31.4331 34.489 28.9556 34.489 27.4276 32.9609L26.7962 33.5923L26.1649 34.2236C28.3903 36.449 31.9984 36.449 34.2238 34.2236L33.5925 33.5923ZM33.5925 26.796L32.9611 27.4274C34.4892 28.9554 34.4892 31.4329 32.9611 32.9609L33.5925 33.5923L34.2238 34.2236C36.4492 31.9982 36.4492 28.3901 34.2238 26.1647L33.5925 26.796ZM6.40754 6.40736L7.03889 7.0387C8.56693 5.51066 11.0444 5.51066 12.5724 7.0387L13.2038 6.40736L13.8351 5.77601C11.6097 3.5506 8.00161 3.5506 5.7762 5.77601L6.40754 6.40736ZM6.40754 6.40736L5.7762 5.77601C3.55079 8.00142 3.55079 11.6095 5.7762 13.8349L6.40754 13.2036L7.03889 12.5722C5.51085 11.0442 5.51085 8.56675 7.03889 7.0387L6.40754 6.40736ZM10 16.6664L10.6313 17.2978L17.298 10.6311L16.6667 9.99975L16.0353 9.36841L9.36865 16.0351L10 16.6664ZM28.3333 3.84501L27.5023 4.17155L28.2196 5.99702L29.0506 5.67049L29.8817 5.34395L29.1644 3.51847L28.3333 3.84501ZM29.5046 6.12607L29.1759 6.95625L30.9947 7.67621L31.3233 6.84603L31.6519 6.01585L29.8332 5.29589L29.5046 6.12607ZM31.3233 8.3506L30.9947 7.52042L29.1759 8.24038L29.5046 9.07056L29.8332 9.90074L31.6519 9.18078L31.3233 8.3506ZM29.0506 9.52614L28.2196 9.19961L27.5023 11.0251L28.3333 11.3516L29.1644 11.6782L29.8817 9.85268L29.0506 9.52614ZM26.8343 11.3516L27.6653 11.0251L26.948 9.19961L26.117 9.52614L25.286 9.85268L26.0033 11.6782L26.8343 11.3516ZM25.6631 9.07056L25.9917 8.24038L24.173 7.52042L23.8444 8.3506L23.5157 9.18078L25.3345 9.90074L25.6631 9.07056ZM23.8444 6.84603L24.173 7.67621L25.9917 6.95625L25.6631 6.12607L25.3345 5.29589L23.5157 6.01585L23.8444 6.84603ZM26.117 5.67049L26.948 5.99702L27.6653 4.17155L26.8343 3.84501L26.0033 3.51847L25.286 5.34395L26.117 5.67049ZM25.6631 6.12607L25.9917 6.95625C26.4301 6.78273 26.7759 6.43495 26.948 5.99702L26.117 5.67049L25.286 5.34395C25.2943 5.32285 25.3114 5.30502 25.3345 5.29589L25.6631 6.12607ZM23.8444 8.3506L24.173 7.52042C24.173 7.52042 24.1735 7.52062 24.1744 7.52108C24.1754 7.52154 24.1767 7.52223 24.1783 7.52318C24.1816 7.52512 24.1856 7.52786 24.1901 7.53153C24.1992 7.53911 24.2073 7.54832 24.2135 7.55798C24.2253 7.5764 24.2271 7.59077 24.2271 7.59831C24.2271 7.60585 24.2253 7.62022 24.2135 7.63865C24.2073 7.64831 24.1992 7.65752 24.1901 7.6651C24.1856 7.66877 24.1816 7.67151 24.1783 7.67345C24.1767 7.6744 24.1754 7.67509 24.1744 7.67555C24.1735 7.67601 24.173 7.67621 24.173 7.67621L23.8444 6.84603L23.5157 6.01585C22.0833 6.58289 22.0833 8.61375 23.5157 9.18078L23.8444 8.3506ZM26.117 9.52614L26.948 9.19961C26.7759 8.76168 26.4301 8.4139 25.9917 8.24038L25.6631 9.07056L25.3345 9.90074C25.3114 9.89161 25.2943 9.87378 25.286 9.85268L26.117 9.52614ZM28.3333 11.3516L27.5023 11.0251C27.5022 11.0254 27.5029 11.0237 27.5047 11.0206C27.5065 11.0175 27.5091 11.0136 27.5127 11.0092C27.5201 11.0002 27.5294 10.992 27.5394 10.9855C27.5585 10.9732 27.5744 10.9707 27.5838 10.9707C27.5933 10.9707 27.6091 10.9732 27.6283 10.9855C27.6383 10.992 27.6475 11.0002 27.655 11.0092C27.6586 11.0136 27.6612 11.0175 27.663 11.0206C27.6648 11.0237 27.6654 11.0254 27.6653 11.0251L26.8343 11.3516L26.0033 11.6782C26.5683 13.1159 28.5994 13.1159 29.1644 11.6782L28.3333 11.3516ZM29.5046 9.07056L29.1759 8.24038C28.7376 8.4139 28.3917 8.76168 28.2196 9.19961L29.0506 9.52614L29.8817 9.85268C29.8734 9.87378 29.8562 9.89161 29.8332 9.90074L29.5046 9.07056ZM31.3233 6.84603L30.9947 7.67621C30.9947 7.67621 30.9942 7.67601 30.9932 7.67555C30.9923 7.67509 30.991 7.6744 30.9894 7.67345C30.9861 7.67151 30.982 7.66877 30.9776 7.6651C30.9684 7.65752 30.9604 7.64831 30.9542 7.63865C30.9424 7.62023 30.9405 7.60586 30.9405 7.59832C30.9405 7.59078 30.9424 7.57641 30.9542 7.55798C30.9604 7.54832 30.9684 7.53911 30.9776 7.53153C30.982 7.52786 30.9861 7.52512 30.9894 7.52318C30.991 7.52223 30.9923 7.52154 30.9932 7.52108C30.9942 7.52062 30.9947 7.52042 30.9947 7.52042L31.3233 8.3506L31.6519 9.18078C33.0844 8.61374 33.0844 6.58288 31.6519 6.01585L31.3233 6.84603ZM29.0506 5.67049L28.2196 5.99702C28.3917 6.43495 28.7376 6.78273 29.1759 6.95625L29.5046 6.12607L29.8332 5.29589C29.8562 5.30502 29.8734 5.32285 29.8817 5.34395L29.0506 5.67049ZM28.3333 3.84501L29.1644 3.51847C28.5994 2.08074 26.5683 2.08074 26.0033 3.51847L26.8343 3.84501L27.6653 4.17155C27.6654 4.17127 27.6648 4.17294 27.663 4.17603C27.6612 4.17911 27.6586 4.18303 27.655 4.1874C27.6475 4.19646 27.6383 4.20466 27.6283 4.2111C27.6091 4.22348 27.5933 4.22589 27.5838 4.22589C27.5744 4.22589 27.5585 4.22348 27.5394 4.2111C27.5294 4.20466 27.5201 4.19646 27.5127 4.1874C27.5091 4.18303 27.5065 4.17911 27.5047 4.17603C27.5029 4.17294 27.5022 4.17127 27.5023 4.17155L28.3333 3.84501ZM34.7786 15.2155L33.9476 15.542L34.2091 16.2076L35.0401 15.8811L35.8711 15.5546L35.6096 14.889L34.7786 15.2155ZM35.494 16.3367L35.1654 17.1669L35.8285 17.4294L36.1572 16.5992L36.4858 15.769L35.8227 15.5065L35.494 16.3367ZM36.1572 18.1037L35.8285 17.2736L35.1654 17.5361L35.494 18.3662L35.8227 19.1964L36.4858 18.9339L36.1572 18.1037ZM35.0401 18.8218L34.2091 18.4953L33.9476 19.1609L34.7786 19.4874L35.6096 19.8139L35.8711 19.1484L35.0401 18.8218ZM33.2796 19.4874L34.1106 19.1609L33.849 18.4953L33.018 18.8218L32.187 19.1484L32.4486 19.8139L33.2796 19.4874ZM32.5641 18.3662L32.8928 17.5361L32.2296 17.2736L31.901 18.1037L31.5724 18.9339L32.2355 19.1964L32.5641 18.3662ZM31.901 16.5992L32.2296 17.4294L32.8928 17.1669L32.5641 16.3367L32.2355 15.5065L31.5724 15.769L31.901 16.5992ZM33.018 15.8811L33.849 16.2076L34.1106 15.542L33.2796 15.2155L32.4486 14.889L32.187 15.5546L33.018 15.8811ZM32.5641 16.3367L32.8928 17.1669C33.3311 16.9933 33.677 16.6456 33.849 16.2076L33.018 15.8811L32.187 15.5546C32.1953 15.5335 32.2124 15.5156 32.2355 15.5065L32.5641 16.3367ZM31.901 18.1037L32.2296 17.2736C32.2296 17.2736 32.2301 17.2738 32.2311 17.2742C32.232 17.2747 32.2333 17.2754 32.2349 17.2763C32.2382 17.2783 32.2423 17.281 32.2467 17.2847C32.2559 17.2923 32.2639 17.3015 32.2701 17.3111C32.2819 17.3295 32.2838 17.3439 32.2838 17.3515C32.2838 17.359 32.2819 17.3734 32.2701 17.3918C32.2639 17.4015 32.2559 17.4107 32.2467 17.4183C32.2423 17.4219 32.2382 17.4247 32.2349 17.4266C32.2333 17.4275 32.232 17.4282 32.2311 17.4287C32.2301 17.4292 32.2296 17.4294 32.2296 17.4294L31.901 16.5992L31.5724 15.769C30.1399 16.336 30.1399 18.3669 31.5724 18.9339L31.901 18.1037ZM33.018 18.8218L33.849 18.4953C33.677 18.0574 33.3311 17.7096 32.8928 17.5361L32.5641 18.3662L32.2355 19.1964C32.2124 19.1873 32.1953 19.1695 32.187 19.1484L33.018 18.8218ZM34.7786 19.4874L33.9476 19.1609C33.9475 19.1611 33.9481 19.1595 33.9499 19.1564C33.9517 19.1533 33.9544 19.1494 33.9579 19.145C33.9654 19.136 33.9746 19.1278 33.9846 19.1213C34.0038 19.1089 34.0196 19.1065 34.0291 19.1065C34.0386 19.1065 34.0544 19.1089 34.0736 19.1213C34.0835 19.1278 34.0928 19.136 34.1002 19.145C34.1038 19.1494 34.1064 19.1533 34.1082 19.1564C34.11 19.1595 34.1107 19.1611 34.1106 19.1609L33.2796 19.4874L32.4486 19.8139C33.0135 21.2517 35.0446 21.2517 35.6096 19.8139L34.7786 19.4874ZM35.494 18.3662L35.1654 17.5361C34.7271 17.7096 34.3812 18.0574 34.2091 18.4953L35.0401 18.8218L35.8711 19.1484C35.8628 19.1695 35.8457 19.1873 35.8227 19.1964L35.494 18.3662ZM36.1572 16.5992L35.8285 17.4294C35.8285 17.4294 35.828 17.4292 35.8271 17.4287C35.8261 17.4282 35.8248 17.4275 35.8232 17.4266C35.8199 17.4247 35.8159 17.4219 35.8114 17.4183C35.8023 17.4107 35.7942 17.4015 35.788 17.3918C35.7762 17.3734 35.7744 17.359 35.7744 17.3515C35.7744 17.3439 35.7762 17.3295 35.788 17.3111C35.7942 17.3015 35.8023 17.2923 35.8114 17.2847C35.8159 17.281 35.8199 17.2783 35.8232 17.2763C35.8248 17.2754 35.8261 17.2747 35.8271 17.2742C35.828 17.2738 35.8285 17.2736 35.8285 17.2736L36.1572 18.1037L36.4858 18.9339C37.9182 18.3669 37.9182 16.336 36.4858 15.769L36.1572 16.5992ZM35.0401 15.8811L34.2091 16.2076C34.3812 16.6456 34.7271 16.9933 35.1654 17.1669L35.494 16.3367L35.8227 15.5065C35.8457 15.5156 35.8628 15.5335 35.8711 15.5546L35.0401 15.8811ZM34.7786 15.2155L35.6096 14.889C35.0446 13.4512 33.0135 13.4512 32.4486 14.889L33.2796 15.2155L34.1106 15.542C34.1107 15.5418 34.11 15.5434 34.1082 15.5465C34.1064 15.5496 34.1038 15.5535 34.1002 15.5579C34.0928 15.567 34.0835 15.5752 34.0736 15.5816C34.0544 15.594 34.0386 15.5964 34.0291 15.5964C34.0196 15.5964 34.0038 15.594 33.9846 15.5816C33.9746 15.5752 33.9654 15.567 33.9579 15.5579C33.9544 15.5535 33.9517 15.5496 33.9499 15.5465C33.9481 15.5434 33.9475 15.5418 33.9476 15.542L34.7786 15.2155ZM10.0548 25.5117L9.22381 25.8383L9.48535 26.5039L10.3164 26.1773L11.1474 25.8508L10.8858 25.1852L10.0548 25.5117ZM10.7703 26.6329L10.4416 27.4631L11.1048 27.7256L11.4334 26.8954L11.762 26.0652L11.0989 25.8027L10.7703 26.6329ZM11.4334 28.4L11.1048 27.5698L10.4416 27.8323L10.7703 28.6625L11.0989 29.4926L11.762 29.2301L11.4334 28.4ZM10.3164 29.1181L9.48535 28.7915L9.22381 29.4571L10.0548 29.7836L10.8858 30.1102L11.1474 29.4446L10.3164 29.1181ZM8.55579 29.7836L9.3868 29.4571L9.12527 28.7915L8.29426 29.1181L7.46326 29.4446L7.72479 30.1102L8.55579 29.7836ZM7.84035 28.6625L8.16898 27.8323L7.50586 27.5698L7.17723 28.4L6.8486 29.2301L7.51172 29.4926L7.84035 28.6625ZM7.17723 26.8954L7.50586 27.7256L8.16898 27.4631L7.84035 26.6329L7.51172 25.8027L6.8486 26.0652L7.17723 26.8954ZM8.29426 26.1773L9.12527 26.5039L9.3868 25.8383L8.55579 25.5117L7.72479 25.1852L7.46326 25.8508L8.29426 26.1773ZM7.84035 26.6329L8.16898 27.4631C8.60733 27.2896 8.95319 26.9418 9.12527 26.5038L8.29426 26.1773L7.46326 25.8508C7.47155 25.8297 7.48867 25.8119 7.51172 25.8027L7.84035 26.6329ZM7.17723 28.4L7.50586 27.5698C7.50585 27.5698 7.50636 27.57 7.5073 27.5705C7.50825 27.5709 7.50956 27.5716 7.51117 27.5725C7.51446 27.5745 7.51851 27.5772 7.52294 27.5809C7.53211 27.5885 7.54016 27.5977 7.54636 27.6074C7.55816 27.6258 7.55999 27.6401 7.55999 27.6477C7.55999 27.6552 7.55816 27.6696 7.54636 27.688C7.54016 27.6977 7.53211 27.7069 7.52294 27.7145C7.51851 27.7181 7.51446 27.7209 7.51117 27.7228C7.50956 27.7238 7.50825 27.7245 7.5073 27.7249C7.50636 27.7254 7.50585 27.7256 7.50586 27.7256L7.17723 26.8954L6.8486 26.0652C5.41617 26.6323 5.41617 28.6631 6.8486 29.2301L7.17723 28.4ZM8.29426 29.1181L9.12527 28.7915C8.95319 28.3536 8.60733 28.0058 8.16898 27.8323L7.84035 28.6625L7.51172 29.4926C7.48867 29.4835 7.47155 29.4657 7.46326 29.4446L8.29426 29.1181ZM10.0548 29.7836L9.22381 29.4571C9.22371 29.4574 9.22435 29.4557 9.22615 29.4526C9.22796 29.4495 9.23059 29.4456 9.23417 29.4412C9.24161 29.4322 9.25084 29.424 9.26083 29.4175C9.27999 29.4052 9.29583 29.4028 9.30531 29.4028C9.31478 29.4028 9.33062 29.4052 9.34979 29.4175C9.35977 29.424 9.36901 29.4322 9.37644 29.4412C9.38003 29.4456 9.38266 29.4495 9.38446 29.4526C9.38627 29.4557 9.38691 29.4574 9.3868 29.4571L8.55579 29.7836L7.72479 30.1102C8.28974 31.5479 10.3209 31.5479 10.8858 30.1102L10.0548 29.7836ZM10.7703 28.6625L10.4416 27.8323C10.0033 28.0058 9.65743 28.3536 9.48535 28.7915L10.3164 29.1181L11.1474 29.4446C11.1391 29.4657 11.1219 29.4835 11.0989 29.4926L10.7703 28.6625ZM11.4334 26.8954L11.1048 27.7256C11.1048 27.7256 11.1043 27.7254 11.1033 27.7249C11.1024 27.7245 11.1011 27.7238 11.0994 27.7228C11.0962 27.7209 11.0921 27.7181 11.0877 27.7145C11.0785 27.7069 11.0704 27.6977 11.0643 27.688C11.0524 27.6696 11.0506 27.6552 11.0506 27.6477C11.0506 27.6401 11.0524 27.6258 11.0643 27.6074C11.0704 27.5977 11.0785 27.5885 11.0877 27.5809C11.0921 27.5772 11.0962 27.5745 11.0994 27.5725C11.1011 27.5716 11.1024 27.5709 11.1033 27.5705C11.1043 27.57 11.1048 27.5698 11.1048 27.5698L11.4334 28.4L11.762 29.2301C13.1944 28.6631 13.1944 26.6323 11.762 26.0652L11.4334 26.8954ZM10.3164 26.1773L9.48535 26.5038C9.65743 26.9418 10.0033 27.2896 10.4416 27.4631L10.7703 26.6329L11.0989 25.8027C11.1219 25.8119 11.1391 25.8297 11.1474 25.8508L10.3164 26.1773ZM10.0548 25.5117L10.8858 25.1852C10.3209 23.7475 8.28974 23.7475 7.72479 25.1852L8.55579 25.5117L9.3868 25.8383C9.38691 25.838 9.38627 25.8397 9.38446 25.8428C9.38266 25.8458 9.38003 25.8498 9.37644 25.8541C9.36901 25.8632 9.35977 25.8714 9.34979 25.8778C9.33062 25.8902 9.31478 25.8926 9.30531 25.8926C9.29583 25.8926 9.27999 25.8902 9.26083 25.8778C9.25084 25.8714 9.24161 25.8632 9.23417 25.8541C9.23059 25.8498 9.22796 25.8458 9.22615 25.8428C9.22435 25.8397 9.22371 25.838 9.22381 25.8383L10.0548 25.5117Z" fill="#FFAF68"/>
</svg>
