<svg width="41" height="40" viewBox="0 0 41 40" fill="none" xmlns="http://www.w3.org/2000/svg">
<path d="M22.4425 8.21493L23.0738 8.84628L22.4425 8.21493ZM31.8706 8.21493L31.2392 8.84628L31.8706 8.21493ZM30.2517 36.6668V35.774V36.6668ZM16.9193 10.0002H16.0264V30.0002H16.9193H17.8121V10.0002H16.9193ZM3.58594 30.0002H4.47879V10.0002H3.58594H2.69308V30.0002H3.58594ZM10.2526 36.6668V35.774C7.06382 35.774 4.47879 33.1889 4.47879 30.0002H3.58594H2.69308C2.69308 34.1752 6.07759 37.5597 10.2526 37.5597V36.6668ZM16.9193 30.0002H16.0264C16.0264 33.1889 13.4414 35.774 10.2526 35.774V36.6668V37.5597C14.4276 37.5597 17.8121 34.1752 17.8121 30.0002H16.9193ZM10.2526 3.3335V4.22635C13.4414 4.22635 16.0264 6.81138 16.0264 10.0002H16.9193H17.8121C17.8121 5.82515 14.4276 2.44064 10.2526 2.44064V3.3335ZM10.2526 3.3335V2.44064C6.07759 2.44064 2.69308 5.82515 2.69308 10.0002H3.58594H4.47879C4.47879 6.81138 7.06382 4.22635 10.2526 4.22635V3.3335ZM16.9197 13.7377L17.551 14.369L23.0738 8.84628L22.4425 8.21493L21.8111 7.58359L16.2884 13.1064L16.9197 13.7377ZM31.8706 8.21493L31.2392 8.84628C33.494 11.1011 33.494 14.7569 31.2392 17.0117L31.8706 17.643L32.5019 18.2744C35.4541 15.3222 35.4541 10.5358 32.5019 7.58359L31.8706 8.21493ZM31.8706 8.21493L32.5019 7.58359C29.5497 4.63141 24.7633 4.63141 21.8111 7.58359L22.4425 8.21493L23.0738 8.84628C25.3286 6.59146 28.9844 6.59147 31.2392 8.84628L31.8706 8.21493ZM31.8706 17.643L31.2392 17.0117L15.1323 33.1186L15.7637 33.7499L16.395 34.3813L32.5019 18.2744L31.8706 17.643ZM30.2517 36.6668V35.774L10.2517 35.774V36.6668V37.5597L30.2517 37.5597V36.6668ZM26.085 23.3335V24.2264H30.2517V23.3335V22.4406H26.085V23.3335ZM36.9183 30.0002H36.0255C36.0255 33.1889 33.4405 35.774 30.2517 35.774V36.6668V37.5597C34.4267 37.5597 37.8112 34.1752 37.8112 30.0002H36.9183ZM36.9183 30.0002H37.8112C37.8112 25.8252 34.4267 22.4406 30.2517 22.4406V23.3335V24.2264C33.4405 24.2264 36.0255 26.8114 36.0255 30.0002H36.9183ZM11.9193 30.0002H11.0264C11.0264 30.4275 10.68 30.774 10.2526 30.774V31.6668V32.5597C11.6662 32.5597 12.8121 31.4137 12.8121 30.0002H11.9193ZM10.2526 31.6668V30.774C9.82524 30.774 9.47879 30.4275 9.47879 30.0002H8.58594H7.69308C7.69308 31.4137 8.83902 32.5597 10.2526 32.5597V31.6668ZM8.58594 30.0002H9.47879C9.47879 29.5728 9.82524 29.2264 10.2526 29.2264V28.3335V27.4406C8.83902 27.4406 7.69308 28.5866 7.69308 30.0002H8.58594ZM10.2526 28.3335V29.2264C10.68 29.2264 11.0264 29.5728 11.0264 30.0002H11.9193H12.8121C12.8121 28.5866 11.6662 27.4406 10.2526 27.4406V28.3335Z" fill="#BA81EE"/>
</svg>
