<svg width="41" height="40" viewBox="0 0 41 40" fill="none" xmlns="http://www.w3.org/2000/svg">
<path d="M5.18007 27.9881L6.06418 27.8635L5.18007 27.9881ZM35.8251 27.9881L34.941 27.8635L35.8251 27.9881ZM36.5301 22.9881L37.4142 23.1128L36.5301 22.9881ZM4.47512 22.9881L3.59101 23.1128L4.47512 22.9881ZM26.7641 3.35204L26.8594 2.46428L26.8594 2.46428L26.7641 3.35204ZM29.7418 6.67358L28.8489 6.67164V6.67164L29.7418 6.67358ZM14.2433 3.35204L14.148 2.46428L14.2433 3.35204ZM10.4494 7.59687C10.5031 8.08705 10.944 8.44091 11.4342 8.38722C11.9243 8.33354 12.2782 7.89266 12.2245 7.40247L10.4494 7.59687ZM11.2656 6.67358L12.1585 6.67164L11.2656 6.67358ZM12.7966 24.1646L13.3659 23.4768L12.7966 24.1646ZM19.1936 29.4595L19.7629 28.7717L19.1936 29.4595ZM23.0174 29.7336L23.4663 30.5054V30.5054L23.0174 29.7336ZM23.462 29.475L23.0131 28.7032V28.7032L23.462 29.475ZM29.0271 29.7522L29.5605 29.0362L29.0271 29.7522ZM33.3007 34.0492C33.6962 34.3437 34.2556 34.262 34.5501 33.8665C34.8447 33.4711 34.763 32.9117 34.3675 32.6171L33.3007 34.0492ZM8.11281 24.0355L8.63653 24.7587L8.11281 24.0355ZM5.38253 24.9105C4.98316 25.1997 4.89388 25.758 5.18312 26.1573C5.47237 26.5567 6.0306 26.646 6.42997 26.3568L5.38253 24.9105ZM14.9566 11.6665V12.5594H26.0486V11.6665V10.7736H14.9566V11.6665ZM36.5301 22.9881L35.646 22.8635L34.941 27.8635L35.8251 27.9881L36.7092 28.1128L37.4142 23.1128L36.5301 22.9881ZM25.3437 36.6665V35.7736H15.6615V36.6665V37.5594H25.3437V36.6665ZM5.18007 27.9881L6.06418 27.8635L5.35924 22.8635L4.47512 22.9881L3.59101 23.1128L4.29596 28.1128L5.18007 27.9881ZM15.6615 36.6665V35.7736C13.4339 35.7736 11.8428 35.7721 10.6187 35.6252C9.41569 35.4809 8.68226 35.2069 8.11925 34.7407L7.54983 35.4284L6.98042 36.1161C7.91272 36.8881 9.02969 37.2331 10.406 37.3982C11.7611 37.5609 13.4782 37.5594 15.6615 37.5594V36.6665ZM5.18007 27.9881L4.29596 28.1128C4.58402 30.1559 4.81057 31.7761 5.16301 33.0352C5.5235 34.3231 6.0424 35.3395 6.98042 36.1161L7.54983 35.4284L8.11925 34.7407C7.56196 34.2793 7.18745 33.6429 6.88263 32.5539C6.56976 31.4361 6.35909 29.9552 6.06418 27.8635L5.18007 27.9881ZM35.8251 27.9881L34.941 27.8635C34.6461 29.9552 34.4354 31.4361 34.1226 32.5539C33.8178 33.6429 33.4433 34.2793 32.886 34.7407L33.4554 35.4284L34.0248 36.1161C34.9628 35.3395 35.4817 34.3231 35.8422 33.0352C36.1946 31.7761 36.4212 30.1559 36.7092 28.1128L35.8251 27.9881ZM25.3437 36.6665V37.5594C27.527 37.5594 29.2441 37.5609 30.5993 37.3982C31.9755 37.2331 33.0925 36.8881 34.0248 36.1161L33.4554 35.4284L32.886 34.7407C32.3229 35.2069 31.5895 35.4809 30.3865 35.6252C29.1624 35.7721 27.5713 35.7736 25.3437 35.7736V36.6665ZM26.0486 11.6665V12.5594C28.8864 12.5594 30.9252 12.5612 32.4561 12.7649C33.968 12.966 34.8239 13.3462 35.4102 13.9794L36.0654 13.3729L36.7206 12.7663C35.7271 11.6932 34.387 11.2202 32.6916 10.9947C31.0153 10.7718 28.8355 10.7736 26.0486 10.7736V11.6665ZM36.5301 22.9881L37.4142 23.1128C37.7819 20.5047 38.074 18.4497 38.0618 16.8364C38.0493 15.1919 37.7224 13.8485 36.7206 12.7663L36.0654 13.3729L35.4102 13.9794C35.9881 14.6037 36.2653 15.4316 36.2761 16.85C36.2871 18.2995 36.0216 20.199 35.646 22.8635L36.5301 22.9881ZM14.9566 11.6665V10.7736C12.1697 10.7736 9.98994 10.7718 8.31362 10.9947C6.61817 11.2202 5.27809 11.6932 4.28461 12.7663L4.9398 13.3729L5.59499 13.9794C6.18126 13.3462 7.03723 12.966 8.54906 12.7649C10.08 12.5612 12.1188 12.5594 14.9566 12.5594V11.6665ZM4.47512 22.9881L5.35924 22.8635C4.98357 20.199 4.71812 18.2995 4.72912 16.85C4.73988 15.4316 5.01709 14.6037 5.59499 13.9794L4.9398 13.3729L4.28461 12.7663C3.28276 13.8485 2.95594 15.1919 2.94346 16.8364C2.93121 18.4497 3.2233 20.5047 3.59101 23.1128L4.47512 22.9881ZM11.3981 7.4998V8.39265H29.6045V7.4998V6.60694H11.3981V7.4998ZM29.6045 7.4998V8.39265C31.2575 8.39265 32.5103 9.88416 32.225 11.5124L33.1045 11.6665L33.984 11.8206C34.4608 9.09954 32.3669 6.60694 29.6045 6.60694V7.4998ZM11.3981 7.4998V6.60694C8.6356 6.60694 6.54179 9.09954 7.01858 11.8206L7.89804 11.6665L8.77749 11.5124C8.4922 9.88416 9.74508 8.39265 11.3981 8.39265V7.4998ZM15.0722 3.33301V4.22586H25.9352V3.33301V2.44015H15.0722V3.33301ZM25.9352 3.33301V4.22586C26.3937 4.22586 26.5512 4.22717 26.6689 4.2398L26.7641 3.35204L26.8594 2.46428C26.6224 2.43885 26.3455 2.44015 25.9352 2.44015V3.33301ZM29.6705 7.49967L30.558 7.59688C30.6027 7.189 30.6341 6.91387 30.6346 6.67552L29.7418 6.67358L28.8489 6.67164C28.8487 6.78998 28.8328 6.94676 28.7829 7.40247L29.6705 7.49967ZM26.7641 3.35204L26.6689 4.2398C27.9108 4.37308 28.8517 5.42258 28.8489 6.67164L29.7418 6.67358L30.6346 6.67552C30.6393 4.51251 29.0101 2.69508 26.8594 2.46428L26.7641 3.35204ZM15.0722 3.33301V2.44015C14.6619 2.44015 14.385 2.43885 14.148 2.46428L14.2433 3.35204L14.3385 4.2398C14.4562 4.22717 14.6138 4.22586 15.0722 4.22586V3.33301ZM11.337 7.49967L12.2245 7.40247C12.1746 6.94673 12.1587 6.78999 12.1585 6.67164L11.2656 6.67358L10.3728 6.67552C10.3733 6.91388 10.4047 7.18896 10.4494 7.59687L11.337 7.49967ZM14.2433 3.35204L14.148 2.46428C11.9973 2.69508 10.3681 4.51251 10.3728 6.67552L11.2656 6.67358L12.1585 6.67164C12.1558 5.42258 13.0966 4.37308 14.3385 4.2398L14.2433 3.35204ZM30.5 19.1665H29.6071C29.6071 20.0541 28.8876 20.7736 28 20.7736V21.6665V22.5593C29.8738 22.5593 31.3929 21.0403 31.3929 19.1665H30.5ZM28 21.6665V20.7736C27.1124 20.7736 26.3929 20.0541 26.3929 19.1665H25.5H24.6071C24.6071 21.0403 26.1262 22.5593 28 22.5593V21.6665ZM25.5 19.1665H26.3929C26.3929 18.2789 27.1124 17.5593 28 17.5593V16.6665V15.7736C26.1262 15.7736 24.6071 17.2926 24.6071 19.1665H25.5ZM28 16.6665V17.5593C28.8876 17.5593 29.6071 18.2789 29.6071 19.1665H30.5H31.3929C31.3929 17.2926 29.8738 15.7736 28 15.7736V16.6665ZM12.7966 24.1646L12.2273 24.8524L18.6243 30.1473L19.1936 29.4595L19.7629 28.7717L13.3659 23.4768L12.7966 24.1646ZM23.0174 29.7336L23.4663 30.5054L23.911 30.2467L23.462 29.475L23.0131 28.7032L22.5684 28.9619L23.0174 29.7336ZM29.0271 29.7522L28.4937 30.4682L33.3007 34.0492L33.8341 33.3331L34.3675 32.6171L29.5605 29.0362L29.0271 29.7522ZM23.462 29.475L23.911 30.2467C25.3168 29.429 27.2382 29.5329 28.4937 30.4682L29.0271 29.7522L29.5605 29.0362C27.7157 27.6619 25.0199 27.5358 23.0131 28.7032L23.462 29.475ZM19.1936 29.4595L18.6243 30.1473C19.9492 31.244 21.9706 31.3755 23.4663 30.5054L23.0174 29.7336L22.5684 28.9619C21.6926 29.4713 20.4875 29.3715 19.7629 28.7717L19.1936 29.4595ZM8.11281 24.0355L8.63653 24.7587C9.67147 24.0091 11.2697 24.0598 12.2273 24.8524L12.7966 24.1646L13.3659 23.4768C11.77 22.1558 9.27197 22.0936 7.58909 23.3124L8.11281 24.0355ZM5.90625 25.6336L6.42997 26.3568L8.63653 24.7587L8.11281 24.0355L7.58909 23.3124L5.38253 24.9105L5.90625 25.6336Z" fill="#70B5FF"/>
</svg>
