<svg width="40" height="40" viewBox="0 0 40 40" fill="none" xmlns="http://www.w3.org/2000/svg">
<path d="M3.33203 35.4163C2.64168 35.4163 2.08203 35.9759 2.08203 36.6663C2.08203 37.3566 2.64168 37.9163 3.33203 37.9163V35.4163ZM36.6654 36.6663V35.4163H3.33203V36.6663V37.9163H36.6654V36.6663ZM27.5 21.6663V22.9163H32.5V21.6663V20.4163H27.5V21.6663ZM35 24.1663H33.75V36.6663H35H36.25V24.1663H35ZM25 36.6663H26.25V24.1663H25H23.75V36.6663H25ZM32.5 21.6663V22.9163C33.1904 22.9163 33.75 23.4759 33.75 24.1663H35H36.25C36.25 22.0952 34.5711 20.4163 32.5 20.4163V21.6663ZM27.5 21.6663V20.4163C25.4289 20.4163 23.75 22.0952 23.75 24.1663H25H26.25C26.25 23.4759 26.8096 22.9163 27.5 22.9163V21.6663ZM25 8.33333H23.75V36.6663H25H26.25V8.33333H25ZM15 36.6667H16.25V8.33333H15H13.75V36.6667H15ZM20 3.33333V4.58333C21.2138 4.58333 21.9985 4.58599 22.5766 4.66372C23.1188 4.73661 23.2887 4.8543 23.3839 4.94945L24.2678 4.06557L25.1516 3.18168C24.5146 2.54461 23.7291 2.29617 22.9097 2.18601C22.1263 2.08068 21.1432 2.08333 20 2.08333V3.33333ZM25 8.33333H26.25C26.25 7.19016 26.2527 6.20703 26.1473 5.42359C26.0372 4.6042 25.7887 3.81876 25.1516 3.18168L24.2678 4.06557L23.3839 4.94945C23.479 5.04461 23.5967 5.21454 23.6696 5.75671C23.7473 6.33485 23.75 7.11949 23.75 8.33333H25ZM20 3.33333V2.08333C18.8568 2.08333 17.8737 2.08068 17.0903 2.18601C16.2709 2.29617 15.4854 2.54461 14.8483 3.18168L15.7322 4.06557L16.6161 4.94945C16.7113 4.8543 16.8812 4.73661 17.4234 4.66372C18.0015 4.58599 18.7862 4.58333 20 4.58333V3.33333ZM15 8.33333H16.25C16.25 7.11949 16.2527 6.33485 16.3304 5.75671C16.4033 5.21454 16.521 5.04461 16.6161 4.94945L15.7322 4.06557L14.8483 3.18168C14.2113 3.81876 13.9628 4.6042 13.8527 5.42359C13.7473 6.20703 13.75 7.19016 13.75 8.33333H15ZM7.5 13.3333V14.5833H12.5V13.3333V12.0833H7.5V13.3333ZM15 15.8333H13.75V36.6667H15H16.25V15.8333H15ZM5 36.6667H6.25V15.8333H5H3.75V36.6667H5ZM12.5 13.3333V14.5833C13.1904 14.5833 13.75 15.143 13.75 15.8333H15H16.25C16.25 13.7623 14.5711 12.0833 12.5 12.0833V13.3333ZM7.5 13.3333V12.0833C5.42893 12.0833 3.75 13.7623 3.75 15.8333H5H6.25C6.25 15.143 6.80964 14.5833 7.5 14.5833V13.3333Z" fill="#79D45E"/>
</svg>
