<svg width="34" height="37" viewBox="0 0 34 37" fill="none" xmlns="http://www.w3.org/2000/svg">
<path fill-rule="evenodd" clip-rule="evenodd" d="M0.5 13.875V28.675H5.08333C5.56483 28.675 6.04163 28.7707 6.48653 28.9567C6.93132 29.1426 7.33561 29.4151 7.67601 29.7587C8.01651 30.1023 8.28663 30.5102 8.47093 30.9591C8.65511 31.408 8.75 31.8891 8.75 32.375V37H19.75L33.5 23.125V8.325H28.9167C28.4351 8.325 27.9584 8.22931 27.5134 8.04337C27.0687 7.85742 26.6644 7.58487 26.324 7.2413C25.9835 6.89773 25.7134 6.48982 25.529 6.04093C25.3449 5.59203 25.25 5.1109 25.25 4.625V0H14.25L0.5 13.875ZM16.0833 27.75H9.66667V17.575L17.9167 9.25H24.3333V19.425L16.0833 27.75Z" fill="#0004E8"/>
</svg>
